<?xml version="1.0" encoding="UTF-8" standalone="no"?>
<!-- Created with Inkscape (http://www.inkscape.org/) -->

<svg
   xmlns:dc="http://purl.org/dc/elements/1.1/"
   xmlns:cc="http://creativecommons.org/ns#"
   xmlns:rdf="http://www.w3.org/1999/02/22-rdf-syntax-ns#"
   xmlns:svg="http://www.w3.org/2000/svg"
   xmlns="http://www.w3.org/2000/svg"
   xmlns:sodipodi="http://sodipodi.sourceforge.net/DTD/sodipodi-0.dtd"
   xmlns:inkscape="http://www.inkscape.org/namespaces/inkscape"
   width="2100"
   height="500"
   id="svg3677"
   version="1.1"
   inkscape:version="0.48.4 r9939"
   sodipodi:docname="munin_startup.svg">
  <defs
     id="defs3679">
    <marker
       inkscape:stockid="TriangleOutL"
       orient="auto"
       refY="0"
       refX="0"
       id="TriangleOutL"
       style="overflow:visible">
      <path
         id="path8453"
         d="m 5.77,0 -8.65,5 0,-10 8.65,5 z"
         style="fill-rule:evenodd;stroke:#000000;stroke-width:1pt"
         transform="scale(0.8,0.8)"
         inkscape:connector-curvature="0" />
    </marker>
  </defs>
  <sodipodi:namedview
     id="base"
     pagecolor="#ffffff"
     bordercolor="#666666"
     borderopacity="1.0"
     inkscape:pageopacity="0.0"
     inkscape:pageshadow="2"
     inkscape:zoom="0.175"
     inkscape:cx="464.56037"
     inkscape:cy="-244.01089"
     inkscape:document-units="px"
     inkscape:current-layer="layer1"
     showgrid="false"
     inkscape:window-width="1920"
     inkscape:window-height="1060"
     inkscape:window-x="0"
     inkscape:window-y="20"
     inkscape:window-maximized="0" />
  <metadata
     id="metadata3682">
    <rdf:RDF>
      <cc:Work
         rdf:about="">
        <dc:format>image/svg+xml</dc:format>
        <dc:type
           rdf:resource="http://purl.org/dc/dcmitype/StillImage" />
        <dc:title></dc:title>
      </cc:Work>
    </rdf:RDF>
  </metadata>
  <g
     inkscape:label="Ebene 1"
     inkscape:groupmode="layer"
     id="layer1"
     transform="translate(0,-552.35695)">
    <path
       style="fill:none;stroke:#000000;stroke-width:10;stroke-linecap:butt;stroke-linejoin:miter;stroke-opacity:1;stroke-miterlimit:4;stroke-dasharray:none"
       d="m 2048.5894,463.63451 -630.3353,0 -828.32502,0 -559.624504,0 0,-426.284376 563.665124,0 977.8277,0 474.7717,0 z"
       id="path4847"
       inkscape:connector-curvature="0"
       transform="translate(0,552.35695)"
       sodipodi:nodetypes="ccccc" />
    <path
       style="fill:none;stroke:#000000;stroke-width:10;stroke-linecap:butt;stroke-linejoin:miter;stroke-opacity:1;stroke-miterlimit:4;stroke-dasharray:none"
       d="M 553.4513,589.82384 779.09933,809.48123 573.42015,1015.1604"
       id="path4853"
       inkscape:connector-curvature="0" />
    <path
       inkscape:connector-curvature="0"
       id="path4855"
       d="m 1342.221,589.82384 225.6481,219.65739 -205.6793,205.67927"
       style="fill:none;stroke:#000000;stroke-width:10;stroke-linecap:butt;stroke-linejoin:miter;stroke-opacity:1;stroke-miterlimit:4;stroke-dasharray:none" />
    <text
       xml:space="preserve"
       style="font-size:154.18322754px;font-style:normal;font-variant:normal;font-weight:normal;font-stretch:normal;text-align:start;line-height:125%;letter-spacing:0px;word-spacing:0px;writing-mode:lr-tb;text-anchor:start;fill:#000000;fill-opacity:1;stroke:none;font-family:Humor Sans;-inkscape-font-specification:Humor Sans"
       x="48.959705"
       y="840.92737"
       id="text4857"
       sodipodi:linespacing="125%"><tspan
         sodipodi:role="line"
         id="tspan4859"
         x="48.959705"
         y="840.92737">Analyse</tspan></text>
    <text
       sodipodi:linespacing="125%"
       id="text4861"
       y="832.84613"
       x="822.73657"
       style="font-size:154.18322754px;font-style:normal;font-variant:normal;font-weight:normal;font-stretch:normal;text-align:start;line-height:125%;letter-spacing:0px;word-spacing:0px;writing-mode:lr-tb;text-anchor:start;fill:#000000;fill-opacity:1;stroke:none;font-family:Humor Sans;-inkscape-font-specification:Humor Sans"
       xml:space="preserve"><tspan
         y="832.84613"
         x="822.73657"
         id="tspan4863"
         sodipodi:role="line">REBUILD</tspan></text>
    <text
       xml:space="preserve"
       style="font-size:154.18322754px;font-style:normal;font-variant:normal;font-weight:normal;font-stretch:normal;text-align:start;line-height:125%;letter-spacing:0px;word-spacing:0px;writing-mode:lr-tb;text-anchor:start;fill:#000000;fill-opacity:1;stroke:none;font-family:Humor Sans;-inkscape-font-specification:Humor Sans"
       x="1661.1631"
       y="832.84613"
       id="text4865"
       sodipodi:linespacing="125%"><tspan
         sodipodi:role="line"
         id="tspan4867"
         x="1661.1631"
         y="832.84613">USE</tspan></text>
    <path
       style="opacity:0.58781361;fill:#aad400;fill-opacity:1;fill-rule:nonzero;stroke:#e76262;stroke-width:20.20305061;stroke-miterlimit:4;stroke-opacity:0.65354327;stroke-dasharray:none;stroke-dashoffset:406.18817734"
       d="m 1476.6575,356.71763 99.9975,-100.14459 -29.7388,-28.64987 c -16.3564,-15.75743 -65.6899,-63.65166 -109.6302,-106.43162 l -79.8913,-77.781749 340.7808,-0.510949 c 187.4295,-0.281021 341.061,-0.230828 341.4034,0.111541 0.3423,0.34237 1.2514,93.531587 2.02,207.087147 l 1.3976,206.46465 -333.1682,0 -333.1682,0 99.9974,-100.14456 z m 230.8397,-53.89893 c 7.6967,-4.29382 21.6908,-18.35284 21.6908,-21.79152 0,-1.7973 2.2729,-5.40302 5.0508,-8.01275 2.7779,-2.60973 5.0507,-6.89552 5.0507,-9.52402 0,-2.6285 1.8183,-8.3432 4.0407,-12.69934 5.0677,-9.93367 5.1319,-19.65841 0.2027,-30.7556 -2.1108,-4.75219 -4.8187,-11.14047 -6.0176,-14.19619 -1.861,-4.74347 -3.3361,-5.55583 -10.0881,-5.55583 -10.2481,0 -11.5622,3.57634 -5.7851,15.74375 3.551,7.47873 4.5011,13.01998 4.4481,25.9424 -0.06,14.52673 -0.7038,17.3508 -5.5558,24.35227 -3.0187,4.35593 -5.4885,8.73042 -5.4885,9.72106 0,4.13487 -11.1186,13.13394 -16.2273,13.13394 -6.2297,0 -9.8726,-3.77252 -14.924,-15.45511 -3.0076,-6.95575 -3.5024,-12.70823 -2.9045,-33.76684 0.6216,-21.89137 0.2447,-25.85901 -2.7402,-28.84482 -2.8614,-2.86236 -4.3486,-3.05752 -8.5863,-1.12674 l -5.1253,2.33529 0,33.08782 0,33.08783 7.2861,9.54239 c 11.9728,15.68032 24.6477,20.93252 35.6728,14.78201 l 0,0 z m 92.6746,-8.92139 c 11.5597,-3.58436 25.9909,-15.26969 25.9909,-21.04552 0,-1.86078 1.3637,-4.51499 3.0304,-5.89828 4.2414,-3.52005 3.8262,-14.81607 -0.695,-18.90771 -2.049,-1.85434 -8.9689,-6.05311 -15.3776,-9.33061 l -11.6521,-5.95911 -8.0518,4.10772 c -4.4285,2.25925 -9.3274,3.61824 -10.8864,3.01999 -6.0376,-2.31686 -1.5073,-17.36064 6.6439,-22.06235 17.6923,-10.20514 17.0485,-10.01671 25.1217,-7.35233 6.2609,2.06631 8.2904,2.04568 10.8887,-0.11069 4.4725,-3.71185 2.9345,-10.50702 -3.0624,-13.53016 -7.3255,-3.69288 -31.1727,-3.39798 -34.3452,0.42472 -1.3833,1.66675 -4.1796,3.03046 -6.214,3.03046 -2.0344,0 -5.1357,2.04556 -6.8919,4.54568 -11.4427,16.2908 -13.1581,20.17391 -13.1581,29.78642 0,8.86255 0.7135,10.45322 6.7567,15.06257 5.2005,3.96662 9.1282,5.15357 17.0533,5.15357 5.6632,0 10.8586,-0.90913 11.5453,-2.0203 3.471,-5.61607 17.1726,0.89404 17.1726,8.15926 0,1.92081 -3.7592,6.88858 -8.3537,11.0395 l -8.3537,7.54709 -19.7786,-1.40224 c -18.5236,-1.31325 -19.9168,-1.14385 -21.958,2.66998 -1.7936,3.35148 -1.3834,4.62973 2.3179,7.22221 2.4735,1.73249 5.9314,3.14999 7.6843,3.14999 1.7528,0 4.0507,0.82089 5.1063,1.82422 4.9588,4.71315 16.0299,5.04226 29.4665,0.87592 l 0,0 z m 121.9946,-1.52991 c 5.8088,-3.8061 6.2552,-6.54882 1.857,-11.40887 -3.4497,-3.81185 -13.6043,-3.60404 -27.676,0.56639 -5.6175,1.66488 -8.7759,1.65518 -12.1218,-0.0372 -2.4887,-1.25881 -7.6904,-2.54385 -11.5595,-2.85562 -5.6237,-0.4532 -7.4262,-1.6875 -8.9874,-6.15448 -2.6139,-7.479 1.6026,-11.58832 13.2187,-12.88251 4.8754,-0.54318 13.2261,-2.92203 18.5572,-5.28635 8.1964,-3.63502 9.6001,-5.06481 9.0914,-9.26027 -0.8619,-7.10875 -6.1622,-9.89069 -12.4414,-6.53013 -2.7675,1.48113 -10.3002,2.80285 -16.7392,2.93716 l -11.7074,0.24415 -1.4615,-9.97317 c -0.8038,-5.48524 -1.0044,-10.71278 -0.4457,-11.61675 0.5587,-0.90398 13.0082,-1.68726 27.6656,-1.74063 31.7573,-0.11563 40.792,-2.97525 40.792,-12.91124 l 0,-5.89926 -34.2769,0.52506 c -18.8523,0.28878 -35.8388,1.361 -37.7479,2.3827 -1.9091,1.02171 -6.838,1.85765 -10.9531,1.85765 l -7.482,0 1.3309,11.32412 c 0.732,6.22827 2.2209,12.98704 3.3086,15.01947 1.0877,2.03244 1.9777,16.75578 1.9777,32.71853 0,20.4604 0.7451,29.80388 2.5254,31.66931 3.9045,4.09118 66.4295,1.79745 73.2753,-2.68809 z"
       id="path4912"
       inkscape:connector-curvature="0"
       transform="translate(0,552.35695)" />
    <path
       style="opacity:0.58781361;fill:#ffe680;fill-opacity:1;fill-rule:nonzero;stroke:#e76262;stroke-width:20.20305061;stroke-miterlimit:4;stroke-opacity:0.65354327;stroke-dasharray:none;stroke-dashoffset:406.18817734"
       d="M 688.42626,357.16177 788.11142,257.46135 678.82216,150.82486 C 618.71306,92.174791 569.5329,43.853407 569.5329,43.444009 c 0,-0.409398 173.04146,-0.74436 384.53658,-0.74436 l 384.53662,0 94.7808,92.099391 c 52.1294,50.65466 101.5939,98.84088 109.9211,107.08049 l 15.1403,14.9811 -99.9855,100.00078 -99.9855,100.00078 -384.86807,0 -384.86813,0 99.68516,-99.70042 0,0 z M 1074.6092,302.7295 c 12.6665,-4.56603 24.1028,-12.42237 26.5107,-18.2119 2.0081,-4.82857 1.6487,-7.18346 -2.4236,-15.87794 -2.8437,-6.07154 -6.6674,-10.92559 -9.4353,-11.97794 -7.6715,-2.91672 -7.9299,-7.7348 -0.7173,-13.37945 3.5494,-2.77788 8.323,-9.02774 10.6079,-13.88859 4.071,-8.66084 4.0793,-8.96586 0.4125,-15.22524 -2.0579,-3.51304 -5.1054,-7.05982 -6.7722,-7.88173 -11.6145,-5.72739 -14.4984,-6.28838 -27.4734,-5.34424 -20.9032,1.52104 -29.5554,3.81603 -37.259,9.88287 l -6.9726,5.49114 3.5276,9.9323 c 1.9402,5.46277 3.5277,11.8022 3.5277,14.08761 0,2.28542 0.9091,4.71718 2.0203,5.40392 1.1652,0.72016 2.0334,11.67282 2.0512,25.87813 0.016,13.54622 0.6989,25.56379 1.5152,26.7057 4.7961,6.70871 27.6566,9.17221 40.8803,4.40536 z m 77.4095,0.35598 c 7.0219,-3.58645 23.6057,-20.50836 23.6057,-24.08709 0,-1.79264 2.2729,-5.39454 5.0508,-8.00427 2.9087,-2.73258 5.0507,-7.00229 5.0507,-10.06754 0,-2.92744 1.3348,-7.08737 2.9663,-9.24429 3.8391,-5.07575 3.9512,-23.03644 0.1973,-31.63233 -1.5934,-3.64899 -4.0881,-9.58923 -5.5438,-13.20052 -2.4043,-5.96466 -3.4342,-6.56599 -11.2449,-6.56599 -7.2019,0 -8.5982,0.64505 -8.5982,3.97206 0,3.58228 3.5909,13.40033 8.3279,22.76956 3.5787,7.07832 1.1641,26.1711 -4.5387,35.88783 -0.9782,1.66676 -2.6246,4.97502 -3.6587,7.35171 -3.4851,8.01013 -14.5644,18.91226 -19.2196,18.91226 -5.1405,0 -8.9374,-3.71051 -15.0511,-14.70867 -3.5155,-6.32426 -4.2456,-11.08471 -4.2456,-27.68412 0,-11.09844 1.064,-22.3817 2.3836,-25.27801 2.0404,-4.47822 1.7968,-5.81833 -1.6922,-9.30728 -2.9963,-2.99634 -5.5004,-3.71826 -9.4547,-2.7258 l -5.3788,1.35002 0,34.88894 c 0,28.54773 0.5508,35.34606 3.0304,37.404 1.6668,1.38329 3.0305,3.60898 3.0305,4.94597 0,2.85029 7.9636,10.68186 14.5714,14.32987 5.921,3.26879 14.7803,3.56988 20.4117,0.69369 z m 183.921,0.86923 c 2.3975,-2.39749 16.2343,-6.63448 21.7699,-6.66619 2.9196,-0.0162 6.4402,-1.39414 7.8235,-3.06089 1.3833,-1.66675 3.5402,-3.03833 4.7931,-3.04797 2.8203,-0.0216 16.4665,-12.79589 20.9039,-19.56819 1.8045,-2.754 4.0746,-9.24708 5.0448,-14.42906 0.9702,-5.18198 2.2378,-11.69464 2.8169,-14.47256 0.9421,-4.51912 -0.9124,-10.07972 -7.7985,-23.38389 -2.1794,-4.21065 -8.4537,-8.79803 -21.4454,-15.67953 -5.3548,-2.83637 -9.4157,-3.41651 -17.2744,-2.46777 -5.6506,0.68217 -15.4147,1.74534 -21.6979,2.36258 -8.3634,0.8216 -12.5982,2.37201 -15.8064,5.78699 -4.0579,4.31951 -4.2933,6.06367 -3.1806,23.56886 0.6608,10.39728 1.6628,29.81378 2.2265,43.1478 0.5637,13.33401 1.4252,25.38008 1.9144,26.76904 0.9377,2.66244 17.4429,3.60812 19.9102,1.14078 z m -330.4068,-13.47359 c 5.0619,-5.06192 5.099,-5.29377 1.4861,-9.28593 -4.0066,-4.4273 -12.21459,-4.3158 -28.0396,0.38087 -5.88139,1.74554 -8.67174,1.72126 -11.58934,-0.10082 -2.11356,-1.31994 -7.26445,-2.40699 -11.4464,-2.41565 -6.30335,-0.0121 -8.04793,-0.96312 -10.20218,-5.55584 -2.37398,-5.06113 -2.14591,-5.93307 2.63804,-10.08577 3.54488,-3.07713 7.83702,-4.54569 13.2857,-4.54569 8.6615,0 23.57286,-6.50601 25.31469,-11.04509 2.69935,-7.03441 -7.23471,-14.43624 -12.47686,-9.29645 -1.05561,1.035 -7.51198,2.50602 -14.34748,3.26894 -11.40468,1.27287 -12.62058,1.02766 -14.76409,-2.97751 -1.28471,-2.40054 -2.05598,-7.73539 -1.71392,-11.85522 l 0.62193,-7.49062 28.28427,-1.01015 c 30.39234,-1.08544 39.91854,-3.71212 41.00864,-11.30739 0.3314,-2.30916 -0.5777,-5.05167 -2.0203,-6.09446 -2.6865,-1.94197 -60.4798,-0.22811 -79.12517,2.34645 l -9.83228,1.35764 1.38445,12.40472 c 0.76145,6.8226 2.23129,13.2684 3.26629,14.32401 1.035,1.05561 1.88181,15.67757 1.88181,32.49323 0,16.81569 0.68185,31.28932 1.51523,32.16362 0.83338,0.87431 16.85205,1.12368 35.59707,0.55415 33.26812,-1.0108 34.2058,-1.15947 39.2734,-6.22704 l 0,0 z m -160.08193,1.22113 c 0.87391,-1.94454 2.10758,-9.44493 2.74154,-16.66752 1.01059,-11.51367 1.6937,-13.20903 5.54323,-13.75724 7.22358,-1.02872 21.04465,7.28788 35.21957,21.19282 11.14384,10.93158 14.31102,12.98187 19.1929,12.42465 7.80812,-0.8912 8.69481,-7.32771 1.89012,-13.72038 -2.82415,-2.65312 -5.13479,-5.96291 -5.13479,-7.35508 0,-1.39217 -3.36169,-5.30219 -7.47044,-8.68897 l -7.47042,-6.15777 4.72099,-5.02526 c 4.73395,-5.03907 7.03785,-8.58555 13.5618,-20.87635 l 3.50765,-6.60824 -10.63523,-10.76901 c -5.84939,-5.92295 -14.29499,-12.72247 -18.76801,-15.11004 -8.44336,-4.50681 -22.74918,-5.83888 -24.92351,-2.32072 -0.68674,1.11117 -3.41415,2.02031 -6.06091,2.02031 -2.64677,0 -5.30161,0.79171 -5.89964,1.75935 -0.59805,0.96765 -3.69621,2.28114 -6.88483,2.91886 -3.20583,0.64117 -7.41012,3.62071 -9.40495,6.66521 -3.10032,4.73168 -3.22548,6.09653 -0.89029,9.70806 1.97816,3.05935 2.73889,12.99426 2.79693,36.52721 0.0438,17.77869 0.81524,33.4613 1.71419,34.85026 2.41734,3.73498 10.82318,3.06396 12.6541,-1.01015 l 0,0 z m 410.28713,-3.53553 c 4.566,-1.90782 13.7814,-3.03046 24.8758,-3.03046 19.4285,0 25.2998,-3.05242 23.9673,-12.46029 -0.6633,-4.68331 -0.8165,-4.70794 -24.9111,-4.0036 -13.334,0.38978 -25.1073,1.5262 -26.1629,2.52538 -1.0556,0.99916 -3.5558,1.81668 -5.5559,1.81668 -3.3779,0 -3.6365,-2.81073 -3.6365,-39.52395 l 0,-39.52396 -6.566,0.63308 -6.566,0.63308 -0.5449,45.41115 c -0.2998,24.97612 -0.1011,46.56813 0.4416,47.98224 1.3568,3.5357 15.7383,3.26779 24.6586,-0.45935 l 0,0 z m -36.8214,-6.20523 c 4.8228,-4.82283 4.6779,-66.56695 -0.1689,-71.92251 -3.9342,-4.34723 -9.398,-4.78608 -12.5345,-1.00678 -1.3042,1.57145 -2.1871,10.74676 -2.1256,22.09061 0.058,10.67153 -0.8679,21.22101 -2.0573,23.4433 -2.929,5.47293 -2.746,25.13783 0.262,28.14578 3.4325,3.43254 12.8671,3.00668 16.6242,-0.7504 l 10e-5,0 z"
       id="path4918"
       inkscape:connector-curvature="0"
       transform="translate(0,552.35695)" />
    <path
       style="opacity:0.58781361;fill:#ffe680;fill-opacity:1;fill-rule:nonzero;stroke:#e76262;stroke-width:20.20305061;stroke-miterlimit:4;stroke-opacity:0.65354327;stroke-dasharray:none;stroke-dashoffset:406.18817734"
       d="m 1043.2515,239.78885 c -5.5483,-18.97628 -0.3315,-25.36327 20.716,-25.36327 19.0084,0 20.762,0.83297 20.6577,9.8126 -0.071,6.09572 -1.2448,8.09781 -6.834,11.65523 -7.5316,4.79368 -33.4233,7.71379 -34.5397,3.89544 l 0,0 z"
       id="path4920"
       inkscape:connector-curvature="0"
       transform="translate(0,552.35695)" />
    <path
       style="opacity:0.58781361;fill:#ffe680;fill-opacity:1;fill-rule:nonzero;stroke:#e76262;stroke-width:20.20305061;stroke-miterlimit:4;stroke-opacity:0.65354327;stroke-dasharray:none;stroke-dashoffset:406.18817734"
       d="m 1048.7493,290.79311 c -3.5794,-3.57932 -3.2705,-33.74324 0.3597,-35.1363 1.5313,-0.5876 7.4247,0.4495 13.0965,2.30466 12.1556,3.97588 24.8481,16.41334 23.1963,22.73006 -1.2309,4.70684 -8.725,8.48534 -16.8294,8.48534 -3.2156,0 -6.4085,0.90914 -7.0952,2.0203 -1.7259,2.7926 -9.7872,2.53669 -12.7279,-0.40406 z"
       id="path4922"
       inkscape:connector-curvature="0"
       transform="translate(0,552.35695)" />
    <path
       style="opacity:0.58781361;fill:#ffe680;fill-opacity:1;fill-rule:nonzero;stroke:#e76262;stroke-width:20.20305061;stroke-miterlimit:4;stroke-opacity:0.65354327;stroke-dasharray:none;stroke-dashoffset:406.18817734"
       d="m 1334.9488,286.65149 c -0.1538,-0.27779 -1.4901,-10.96016 -2.9696,-23.73859 -1.4794,-12.77843 -3.2488,-26.90255 -3.9318,-31.38694 -1.092,-7.16878 -0.6723,-8.4313 3.4747,-10.45442 2.5941,-1.26554 7.2167,-2.82404 10.2724,-3.46332 3.0557,-0.63928 7.744,-1.7067 10.4185,-2.37205 4.9812,-1.23921 12.3369,2.80764 23.9267,13.1637 4.9952,4.46342 5.5558,6.30613 5.5558,18.25959 0,20.82698 -5.2211,26.88307 -32.925,38.19065 -5.0683,2.06869 -13.0944,3.11472 -13.8217,1.80138 z"
       id="path4924"
       inkscape:connector-curvature="0"
       transform="translate(0,552.35695)" />
    <path
       style="opacity:0.58781361;fill:#ff2a2a;fill-opacity:1;fill-rule:nonzero;stroke:#e76262;stroke-width:20.20305061;stroke-miterlimit:4;stroke-opacity:0.65354327;stroke-dasharray:none;stroke-dashoffset:406.18817734"
       d="m 35.33799,250.52943 0,-207.081277 257.75703,0 257.75705,0 108.92832,106.248667 c 59.91059,58.43677 108.92835,106.85178 108.92835,107.58889 0,0.73713 -44.77843,46.11181 -99.5076,100.83262 l -99.50761,99.49237 -267.17777,0 -267.17777,0 0,-207.08127 z m 116.77363,65.25585 c 1.68144,-1.68144 2.42437,-12.22572 2.42437,-34.40858 0,-26.91113 0.4926,-32.17326 3.1057,-33.17602 3.34129,-1.28217 11.03644,4.49997 11.03644,8.29277 0,1.26903 3.63654,5.85832 8.08122,10.19842 4.44467,4.3401 8.08122,8.90021 8.08122,10.13356 0,1.23336 2.62929,4.76148 5.84287,7.84028 7.53798,7.22185 13.26505,6.34647 20.97556,-3.20608 5.19329,-6.43399 6.2511,-9.8944 7.71977,-25.25381 2.47405,-25.87383 4.75205,-41.72763 6.36301,-44.28348 0.77708,-1.23288 0.30173,-4.63505 -1.05634,-7.56039 -1.88145,-4.0527 -3.95093,-5.32253 -8.69383,-5.33454 -8.46519,-0.0214 -10.62852,4.99654 -11.75146,27.25835 -1.25186,24.81729 -3.12743,35.35534 -6.29258,35.35534 -3.65397,0 -20.63815,-19.28579 -25.66955,-29.14815 -2.28568,-4.4803 -6.91028,-11.57361 -10.27688,-15.76289 -4.8706,-6.06081 -7.4966,-7.61689 -12.85404,-7.61689 l -6.73294,0 0,17.05336 c 0,9.37935 -0.90914,17.61524 -2.02031,18.30198 -1.21161,0.74883 -2.0203,14.27845 -2.0203,33.80027 0,27.45449 0.52356,33.13015 3.34358,36.24625 3.88475,4.29261 6.99237,4.67236 10.39449,1.27025 l 0,0 z M 69.1781,310.72003 c 1.38896,-2.99078 2.525381,-8.75216 2.525381,-12.8031 0,-11.36256 4.147881,-13.74652 23.233509,-13.3532 8.88934,0.18324 17.29886,1.06359 18.68782,1.95644 1.39751,0.89835 2.52538,5.63045 2.52538,10.59551 0,8.10019 0.46682,8.97214 4.80339,8.97214 8.84094,0 9.69151,-3.52501 8.12804,-33.68506 -1.10952,-21.40323 -2.31814,-29.48374 -5.16945,-34.56169 -2.04675,-3.64509 -3.72137,-7.77899 -3.72137,-9.18644 0,-3.12756 -13.75522,-16.45305 -18.81579,-18.22795 -9.279353,-3.25457 -21.080884,9.69302 -28.077569,30.80419 -1.987687,5.99748 -4.399064,11.90687 -5.358614,13.13198 -0.95955,1.22512 -2.363196,6.27349 -3.119214,11.21864 -0.756016,4.94512 -2.129618,9.94537 -3.052449,11.11167 -0.922831,1.16629 -2.18066,4.84795 -2.795177,8.18145 -0.614518,3.3335 -2.173775,10.41544 -3.465017,15.73765 -1.81588,7.48467 -1.793067,10.34506 0.100712,12.62691 3.978193,4.79344 10.758937,3.53471 13.570422,-2.51914 l -4e-6,0 z m 383.72776,1.07654 c 4.11643,-3.86721 4.67589,-6.28771 4.67589,-20.23047 0,-8.71072 0.79093,-17.41634 1.75761,-19.34581 0.96667,-1.92947 3.7035,-7.59924 6.0818,-12.59949 2.37831,-5.00026 5.92352,-11.81879 7.87822,-15.15229 5.03976,-8.59463 9.00287,-20.82753 7.52316,-23.22173 -2.57478,-4.1661 -10.97962,-2.10831 -14.39246,3.52376 -1.85165,3.05571 -5.0546,8.01915 -7.11763,11.02986 -2.06306,3.01072 -3.751,6.65587 -3.751,8.10032 0,4.57012 -6.78697,7.52087 -10.70651,4.65485 -1.88959,-1.38171 -3.43563,-3.50028 -3.43563,-4.70796 0,-1.20766 -2.27284,-6.47038 -5.05076,-11.69493 -2.77792,-5.22455 -5.05076,-10.6814 -5.05076,-12.12633 0,-3.13727 -12.16125,-14.93111 -15.41,-14.94444 -1.25289,-0.005 -3.44521,1.39705 -4.87181,3.11599 -2.15231,2.59339 -1.70402,5.08641 2.63392,14.64721 2.87523,6.33703 5.76413,12.88558 6.41976,14.55233 0.65565,1.66675 3.85896,7.12158 7.1185,12.12183 10.7794,16.53602 16.51838,30.63753 14.05341,34.53124 -2.67927,4.23224 -2.25066,26.902 0.5618,29.71446 3.44582,3.44582 5.7561,3.03547 11.08249,-1.9684 l 0,0 z M 249.03952,301.03705 c 0.30765,-4.44467 1.40625,-9.89949 2.44136,-12.12183 1.03508,-2.22233 2.14707,-6.31345 2.47109,-9.09137 0.46021,-3.94552 1.91543,-5.20041 6.65004,-5.73462 3.3335,-0.3761 6.97005,-1.42744 8.08122,-2.3363 1.11117,-0.90885 6.25795,-2.28323 11.43731,-3.05417 8.20817,-1.22178 9.69936,-0.87409 11.61675,2.70856 1.20986,2.26066 2.19975,6.00067 2.19975,8.31113 0,2.31046 0.79814,5.77949 1.77367,7.70896 0.9755,1.92947 3.23364,6.91738 5.01807,11.08426 3.54137,8.26959 5.50523,9.2033 9.42456,4.4808 3.06976,-3.69884 1.36775,-42.75819 -2.01038,-46.13632 -1.14624,-1.14624 -2.08409,-6.00572 -2.08409,-10.79881 0,-4.7931 -0.83329,-10.29338 -1.85179,-12.22285 -1.01848,-1.92946 -2.87134,-6.28007 -4.1175,-9.66802 -1.24615,-3.38794 -5.69468,-11.11561 -9.8856,-17.17259 -6.70903,-9.69625 -8.5454,-11.08969 -15.36232,-11.65683 -6.79794,-0.56556 -8.83621,0.42024 -16.70891,8.08122 -11.01078,10.71467 -13.89649,16.01211 -15.7728,28.95503 -0.8033,5.5412 -2.13704,10.98404 -2.96389,12.09521 -0.82685,1.11117 -1.97808,15.34606 -2.55828,31.63307 -1.11009,31.16167 -0.30549,34.7291 7.57819,33.59919 3.1822,-0.45609 4.18559,-2.33626 4.62355,-8.66372 l 0,0 z m 293.44636,-2.51449 c 6.07278,-3.17246 12.18048,-7.99564 13.57268,-10.71818 2.84824,-5.57002 1.51688,-15.42525 -2.73715,-20.26144 -1.54309,-1.75425 -2.80562,-3.9838 -2.80562,-4.95458 0,-2.19249 -12.34934,-15.08939 -14.44874,-15.08939 -1.27724,0 -15.24161,-8.81385 -17.42727,-10.99953 -0.36663,-0.36663 1.06086,-3.50719 3.1722,-6.97901 3.76051,-6.18367 15.67395,-15.37578 30.39911,-23.45518 17.51998,-9.61286 -1.03159,-15.59367 -19.43782,-6.26653 -10.57394,5.35821 -29.17907,22.86302 -33.93636,31.92934 -3.86899,7.37338 -0.93124,14.81355 6.57975,16.66394 8.99767,2.21664 30.79648,17.5612 33.96183,23.90629 2.73075,5.4739 2.54765,6.11937 -3.65588,12.8886 l -6.5306,7.12612 -19.77656,0 c -21.2867,0 -23.98523,1.36995 -19.43738,9.86768 2.30198,4.30127 3.2232,4.43986 21.93464,3.29992 16.12175,-0.98219 21.45942,-2.19696 30.57317,-6.95805 l 0,0 z m -183.61664,-0.66712 c 2.23159,-1.19431 11.8421,-2.50054 21.35671,-2.90272 9.51461,-0.40218 18.18634,-1.6183 19.27056,-2.70252 1.25895,-1.25895 1.28204,-4.04273 0.0638,-7.70389 l -1.90735,-5.73261 -23.9946,-0.57284 c -31.34279,-0.74826 -31.65248,-1.00132 -29.95452,-24.47862 0.69115,-9.55623 2.04968,-18.23863 3.01899,-19.29424 0.96934,-1.05561 1.76241,-5.19218 1.76241,-9.19239 0,-4.0002 0.81335,-8.13678 1.80746,-9.19239 0.9941,-1.05561 2.41694,-4.81428 3.16184,-8.35262 1.14741,-5.45017 0.56815,-6.94848 -3.79033,-9.80428 -4.84522,-3.1747 -5.52915,-3.14706 -11.74814,0.47472 -4.12916,2.40472 -6.82416,5.69982 -7.19255,8.79413 -0.32401,2.72165 -1.40423,6.76673 -2.40046,8.98907 -0.99625,2.22233 -2.40689,12.90342 -3.13475,23.73575 -0.72787,10.83232 -2.14778,20.20463 -3.15537,20.82735 -1.00759,0.62272 -1.83197,6.26777 -1.83197,12.54456 0,10.43562 0.64025,12.06803 7.48109,19.07368 6.63248,6.79227 8.59549,7.66132 17.3054,7.66132 5.40339,0 11.65017,-0.97716 13.88174,-2.17146 l 0,0 z m 243.16433,-1.86503 c 10.00051,-0.90467 21.17875,-1.73025 24.84056,-1.83464 7.78993,-0.22205 17.20083,-8.33178 15.32904,-13.20958 -0.98344,-2.5628 -5.05817,-3.14265 -22.08377,-3.14265 -11.48281,0 -21.41851,0.87486 -22.07935,1.94412 -0.75347,1.21914 -3.05809,1.09822 -6.18015,-0.32428 -4.05415,-1.8472 -4.97862,-3.73346 -4.97862,-10.15817 0,-4.33935 0.94112,-9.64825 2.09138,-11.79753 2.20199,-4.11443 10.90708,-5.37246 13.06091,-1.88749 0.68674,1.11117 4.32329,2.0203 8.08122,2.0203 3.75793,0 7.39448,-0.90913 8.08122,-2.0203 0.68674,-1.11117 3.16893,-2.02031 5.516,-2.02031 4.89008,0 11.65659,-5.41791 11.65659,-9.3334 0,-4.75176 -7.51848,-6.82904 -24.71694,-6.82904 -17.2011,0 -21.75008,-1.70102 -21.75008,-8.13311 0,-5.16537 8.32823,-11.48675 17.1726,-13.03455 4.44467,-0.77784 15.95168,-1.85049 25.57114,-2.38367 13.84479,-0.76738 18.21877,-1.77477 20.98697,-4.83359 3.00169,-3.31684 3.10262,-4.33938 0.71262,-7.21916 -2.45041,-2.95255 -6.4219,-3.21727 -33.10878,-2.20687 -31.51334,1.19314 -38.74064,2.98753 -46.48075,11.54027 -3.25661,3.5985 -3.38488,4.95148 -1.1201,11.81385 1.5081,4.56957 2.07439,11.82058 1.37993,17.66937 -5.57059,46.916 -5.93026,53.21281 -3.22578,56.47152 1.88032,2.26563 4.30353,2.85303 7.88775,1.91203 2.8455,-0.74704 13.35588,-2.09845 23.35639,-3.00312 l 0,0 z"
       id="path4928"
       inkscape:connector-curvature="0"
       transform="translate(0,552.35695)" />
    <path
       style="opacity:0.58781361;fill:#ff2a2a;fill-opacity:1;fill-rule:nonzero;stroke:#e76262;stroke-width:20.20305061;stroke-miterlimit:4;stroke-opacity:0.65354327;stroke-dasharray:none;stroke-dashoffset:406.18817734"
       d="m 81.805007,265.48196 c 0,-5.76723 3.752143,-16.697 8.254173,-24.04391 1.02135,-1.66675 2.741465,-5.07601 3.822477,-7.57614 2.363921,-5.4672 4.455914,-5.7135 8.579803,-1.01015 8.84713,10.09025 12.93977,30.75049 7.22376,36.4665 -1.37253,1.37253 -7.94654,2.42437 -15.152291,2.42437 l -12.727922,0 0,-6.26067 z"
       id="path4930"
       inkscape:connector-curvature="0"
       transform="translate(0,552.35695)" />
    <path
       style="opacity:0.58781361;fill:#ff2a2a;fill-opacity:1;fill-rule:nonzero;stroke:#e76262;stroke-width:20.20305061;stroke-miterlimit:4;stroke-opacity:0.65354327;stroke-dasharray:none;stroke-dashoffset:406.18817734"
       d="m 258.5385,251.49184 c -2.83642,-3.1342 -3.14524,-4.64301 -1.32327,-6.46498 1.30714,-1.30714 2.37662,-5.08495 2.37662,-8.39512 0,-17.06137 10.7688,-27.07458 18.65013,-17.34155 2.10445,2.59888 4.33347,7.26124 4.95338,10.36079 0.61991,3.09955 2.38125,6.67639 3.91409,7.94853 4.07941,3.38561 3.50421,9.89946 -0.87416,9.89946 -2.01362,0 -7.42453,1.81827 -12.02423,4.04061 -10.35897,5.00491 -11.10203,5.00264 -15.67256,-0.0477 l 0,0 z"
       id="path4932"
       inkscape:connector-curvature="0"
       transform="translate(0,552.35695)" />
    <path
       style="opacity:0.58781361;fill:#ffe580;fill-opacity:0.58823529;fill-rule:nonzero;stroke:#e76262;stroke-width:10.10152531;stroke-miterlimit:4;stroke-opacity:0.65354327;stroke-dasharray:none;stroke-dashoffset:406.18817734"
       d="m 850.6783,241.19461 c -3.15156,-3.52458 -6.4011,-10.60293 -6.4011,-13.94327 0,-2.13709 1.22078,-4.34631 4.16927,-7.54504 l 4.16926,-4.52312 13.28296,0 13.28296,0 6.79144,6.84388 c 3.85721,3.887 6.79144,7.72071 6.79144,8.87335 0,1.1162 -2.40078,4.40041 -5.33507,7.29825 l -5.33506,5.26879 -14.69191,0 c -13.96045,0 -14.79308,-0.11315 -16.72419,-2.27284 z"
       id="path4948"
       inkscape:connector-curvature="0"
       transform="translate(0,552.35695)" />
  </g>
</svg>
